<svg xmlns="http://www.w3.org/2000/svg" viewBox="0 0 100 100">
  <!-- Background circle -->
  <circle cx="50" cy="50" r="48" fill="#0f0b07" stroke="#c8922a" stroke-width="2.5"/>

  <!-- Outer gear teeth (12 teeth) -->
  <g fill="#c8922a">
    <rect x="46" y="2" width="8" height="10" rx="1"/>
    <rect x="46" y="88" width="8" height="10" rx="1"/>
    <rect x="2" y="46" width="10" height="8" rx="1"/>
    <rect x="88" y="46" width="10" height="8" rx="1"/>
    <!-- diagonal teeth -->
    <rect x="72" y="10" width="8" height="10" rx="1" transform="rotate(45 76 15)"/>
    <rect x="18" y="10" width="8" height="10" rx="1" transform="rotate(-45 22 15)"/>
    <rect x="72" y="80" width="8" height="10" rx="1" transform="rotate(-45 76 85)"/>
    <rect x="18" y="80" width="8" height="10" rx="1" transform="rotate(45 22 85)"/>
  </g>

  <!-- Gear ring -->
  <circle cx="50" cy="50" r="42" fill="none" stroke="#c8922a" stroke-width="1.5" opacity="0.4"/>
  <circle cx="50" cy="50" r="36" fill="none" stroke="#9a7830" stroke-width="1" opacity="0.5"/>

  <!-- Inner gear body -->
  <circle cx="50" cy="50" r="34" fill="#1a1408"/>

  <!-- Inner decorative ring -->
  <circle cx="50" cy="50" r="30" fill="none" stroke="#c8922a" stroke-width="1.2" opacity="0.6"/>

  <!-- TD letters -->
  <text x="50" y="57"
    font-size="26"
    text-anchor="middle"
    fill="#e4b84a"
    font-weight="bold"
    font-family="Georgia, serif"
    letter-spacing="2"
    filter="url(#glow)">TD</text>

  <!-- Small center bolt -->
  <circle cx="50" cy="50" r="4" fill="#c8922a" opacity="0.3"/>

  <!-- Rivet accents -->
  <circle cx="50" cy="22" r="2.5" fill="#e4b84a" opacity="0.7"/>
  <circle cx="50" cy="78" r="2.5" fill="#e4b84a" opacity="0.7"/>
  <circle cx="22" cy="50" r="2.5" fill="#e4b84a" opacity="0.7"/>
  <circle cx="78" cy="50" r="2.5" fill="#e4b84a" opacity="0.7"/>

  <defs>
    <filter id="glow" x="-20%" y="-20%" width="140%" height="140%">
      <feGaussianBlur in="SourceGraphic" stdDeviation="1.5" result="blur"/>
      <feMerge>
        <feMergeNode in="blur"/>
        <feMergeNode in="SourceGraphic"/>
      </feMerge>
    </filter>
  </defs>
</svg>
